<svg id="Layer_1" data-name="Layer 1" xmlns="http://www.w3.org/2000/svg" viewBox="0 0 600 600"><defs><style>.cls-1{fill:none;}.cls-2{fill:#be1e2d;}</style></defs><path class="cls-1" d="M294.13,65l-1.55.37c2.47-.08,4.94-.13,7.42-.13,6.37,0,12.69.27,18.93.76A44.65,44.65,0,0,0,294.13,65Z"/><path class="cls-2" d="M409.63,461.3c-23.51,9-46,6.76-67.37-6.17-10.78-6.52-21.22-13.57-31.82-20.37-5.1-3.27-10.23-6.5-15.32-9.78-18.8-12.13-39-15.3-60.91-10.69-24.4,5.14-49.15,4.55-73.88,3-22-1.38-44.06-3-66.1-4.27q1.41,2.55,2.87,5.07c1.6.13,3.2.28,4.81.46,23.29,2.51,46.48,6,69.76,8.55,23.52,2.6,46.83.62,69.86-4.69,16.74-3.87,32.41-1.16,46.74,8.06,11.52,7.43,22.6,15.55,33.9,23.31s22.89,14.62,36.34,17.66c14.47,3.26,28.59.29,42.5-3.41,21.84-5.82,43.4-12.8,65.39-17.9,5.89-1.37,11.75-2.8,17.57-4.34q4.57-5.78,8.79-11.83c-13,3.49-25.94,7-38.81,10.93C438.9,449.45,424.34,455.64,409.63,461.3Z"/><path class="cls-2" d="M437.78,371.18c-12.64,4.06-24.61,10.31-36.69,16-11.33,5.32-22.75,10.1-35.46,10.56-15,.53-28.65-4.24-41.15-12.05-10.82-6.75-21.46-13.86-31.65-21.51-25.59-19.22-53.87-25.13-85-18.5-22,4.69-44.09,5.94-66.52,2.64-18.94-2.78-36.68,1.46-52.56,12.51.14.1.31.28.4.25,1.77-.7,3.55-1.38,5.29-2.14A64,64,0,0,1,130,354.26c7.41,1.06,14.94,2.48,22.35,2.14,21-.95,42-3.17,63-4a237.05,237.05,0,0,1,38.62,1.14c17.79,2.21,32.86,11.59,47.57,21.3,11.45,7.55,22.75,15.36,34.58,22.27,19.88,11.63,40.43,12.54,61.11,1.78,7.21-3.75,14.51-7.38,21.48-11.54,22.22-13.27,46.11-16.58,71-11.13q15,3.29,30,6.72c.36-1,.73-1.93,1.08-2.91q-15.23-3.84-30.48-7.59C473,368.18,455.11,365.62,437.78,371.18Z"/><path class="cls-2" d="M510.39,326.08c-14.86,1.64-29.65,4.24-44.34,7.07-25.9,5-51.92,5.75-78.14,3.71-47.68-3.72-93.35-16.36-138.77-30.48-13.16-4.1-26.91-6.5-40.53-8.79-10.13-1.7-19.86,1.72-29.45,4.82-8.78,2.83-17.51,6-26.47,8-12.11,2.81-24.21.14-36-2.3a87.86,87.86,0,0,0-51.07,4.2c.17,3.36.43,6.7.74,10a262.09,262.09,0,0,1,26.24-8.76c12.7-3.34,25.77-1.41,38.47,1,18.08,3.38,35.44,1.27,52.72-4.43A158.08,158.08,0,0,1,206,304.84c16.34-2.88,31.65,1.87,46.63,7.48,17.13,6.43,33.76,14.34,51.1,20.09,47.21,15.66,95.31,17.13,144,7.5A449.59,449.59,0,0,1,495.47,333c12.43-1.09,24.52.66,36.46,3.42.5-3.22.92-6.46,1.29-9.72A89.74,89.74,0,0,0,510.39,326.08Z"/><path class="cls-2" d="M510.39,308.24c-19.43,6.23-39.07,10.45-59.62,9.59A308.46,308.46,0,0,1,387.08,308C326.57,292.52,265.25,280.79,204,268.91c-18.19-3.52-35.87-1.75-52.41,7.57-6.23,3.51-12.76,6.54-19.24,9.61a42.71,42.71,0,0,1-33,1.92c-5.58-1.88-11.08-4-16.64-5.95a62.55,62.55,0,0,0-16.39-3.8q-.36,4-.6,8c0,.83-.09,1.65-.13,2.48-.14,2.8-.21,5.62-.24,8.44a45.86,45.86,0,0,1,13.44-2,170.28,170.28,0,0,1,33.1,3.53c16.94,3.58,33.24,3.82,48.93-4.27,22.57-11.63,45.81-9.35,69.55-4.54q81,16.42,162.25,31.88c21,4,42.38,6.59,63.8,4a335.61,335.61,0,0,0,42.77-7.61,134.34,134.34,0,0,1,35.18-4.22c.11-1.88.19-3.76.26-5.64,0-.82.06-1.63.08-2.45,0-1.55.06-3.1.06-4.66C526.56,303.35,518.42,305.65,510.39,308.24Z"/><path class="cls-2" d="M436.46,305.61c-20.52-4.36-40.95-9.52-61-15.8a601.54,601.54,0,0,0-116.73-24.46q-27.34-2.89-54.61-6.59c-12.37-1.67-24.8-4.15-36.9.29-9.09,3.33-17.82,7.71-26.56,11.93-12.53,6-24.59,13.3-38.94,14.61a36.27,36.27,0,0,0,28.14-1.32c7.83-3.57,15.53-7.43,23.18-11.37,12.7-6.53,26.13-9.6,40.26-7.5,16.84,2.5,33.61,5.54,50.32,8.8,27.67,5.4,55.31,10.93,82.87,16.83,33,7.07,65.81,15.15,98.92,21.71,20.12,4,40.74,4.36,60.86-.6,15.6-3.85,30.83-9.16,46.31-13.52l2.1-.59c0-1.9-.05-3.79-.11-5.68-8.93,2.78-17.9,5.44-26.84,8.19C484.39,307.74,460.52,310.72,436.46,305.61Z"/><path class="cls-2" d="M427.39,328.51c-21.18-2.28-42.25-5.89-63.26-9.52-27.46-4.73-54.85-9.86-82.19-15.21-20.15-3.94-40.2-8.4-60.26-12.8-20.35-4.47-40.09-3.84-59.2,5.55-13.17,6.47-27.08,9.27-41.78,6.32-6.86-1.38-13.78-2.51-20.61-4a67.26,67.26,0,0,0-34.82,1.39c0,3.14.08,6.25.2,9.36,17.63-6.73,35.8-7.52,54.48-3.41,17,3.76,34,4.16,50.14-3.34,25.2-11.7,50.19-7.91,75.52-.48,27.48,8.07,55,16.15,82.82,22.86a372.06,372.06,0,0,0,92.49,10.25,259,259,0,0,0,57.71-7.61,153.59,153.59,0,0,1,54.83-3.24q.43-4.26.72-8.56c-11,.16-22.06,2.1-33,4.58C476.89,326.15,452.42,331.21,427.39,328.51Z"/><path class="cls-2" d="M459.21,353.57c-14.64.59-28.66,3.9-42.56,8.26-18,5.67-36.46,9-55.52,8.48-21.46-.62-40.94-7.36-59.21-18.19-6.73-4-13.51-7.87-20.17-12-25.87-15.87-53.08-20.3-82.54-11.23-10.23,3.15-21.18,4.61-31.9,5.34-7.15.48-14.62-1.15-21.71-2.82-16.21-3.82-31.65-1.75-46.71,4.74q-14.31,6.15-28.58,12.4c.7,3.32,1.46,6.63,2.3,9.9,5.37-2.72,10.76-5.42,15.88-8.58,18.13-11.18,37.45-15.73,58.57-11.68,19.36,3.71,38.37,1.93,57.18-3.63,31.88-9.42,60.65-2.7,87.24,16.55a384.85,384.85,0,0,0,34.45,22.43c21.88,12.49,44.74,13.62,68,3.63,6.29-2.7,12.65-5.32,18.74-8.43,22.34-11.43,46-13.34,69.87-7.71,13.76,3.25,27.46,6.76,41.13,10.37q1.5-4.71,2.81-9.5C504.45,356.22,482.13,352.66,459.21,353.57Z"/><path class="cls-2" d="M420.18,448.05c-11.19,5.16-22.53,9.79-35.24,9.24-14.28-.62-27-6.08-39-13.11-13.77-8-27.06-16.87-40.73-25.07-21.2-12.72-43.91-19-68.92-16.75-17,1.55-34.07,3-51.09,2.76-32.27-.55-64.52-2.14-96.78-3.4q2,4.08,4.09,8.06c21.82,1.41,43.61,3.33,65.42,5,27.63,2.06,55.16,1.54,82.44-3.8,18.41-3.6,35.6-.16,51.49,9.29,12.33,7.33,24.13,15.54,36.25,23.21,6.19,3.92,12.51,7.65,18.89,11.25,19.19,10.83,39.16,12.35,59.87,4.8,18.39-6.7,36.53-14.3,55.28-19.76q16.42-4.79,33-9.15,5.1-7.6,9.59-15.6a234.83,234.83,0,0,0-35.06,10.39C452.72,431.81,436.65,440.46,420.18,448.05Z"/><path class="cls-2" d="M463.61,361.35c-16.66-2.13-32.55,1.83-47.84,8.74-11.16,5-22.36,10.3-34,13.78-19.8,5.88-39,2.28-56.71-7.83-12.43-7.11-24.16-15.47-36.14-23.36s-24.18-14.84-38.23-18.14c-15.22-3.58-30.09-1-45,2.37-8.39,1.88-16.8,4.85-25.25,5-13.78.3-27.65-.88-41.41-2.15-12.72-1.17-24.86,0-36.29,5.85-9.87,5.05-19.65,10.27-29.42,15.5.34,1.28.69,2.57,1,3.84q9.33-4.73,18.43-9.83a76.37,76.37,0,0,1,48.41-9.44c8.21,1.07,16.58,2.49,24.77,1.95,14.75-.95,29.45-2.92,44.09-5.08,18.87-2.77,37.81-4.16,55.54,3.84C278,352,289.45,359.84,301.11,367c10.46,6.42,20.28,13.94,31,19.84,19.25,10.59,39.29,11,59.32,1.86,8.4-3.85,16.72-7.9,24.86-12.27,19.56-10.51,40.6-13.45,61.76-8.69,14.5,3.26,29,6.72,43.39,10.28.57-1.6,1.11-3.2,1.64-4.81q-7-1.8-14-3.55A396.31,396.31,0,0,0,463.61,361.35Z"/><path class="cls-2" d="M480.56,344.4c-19.26.29-37.89,4.54-56.57,8.69-41.62,9.26-82.62,8.85-122.18-9.09-12.91-5.85-25.35-12.7-38.13-18.84-22.55-10.84-45.75-12.71-69.67-4.77-5.72,1.9-11.71,3-17.55,4.51-12,3.14-23.81,1.66-35.48-1.2-16.9-4.14-33.24-2.25-49.24,3.76-7.92,3-15.76,6.17-23.59,9.38.49,3.1,1,6.17,1.64,9.23,9.62-4.32,19.32-8.48,29-12.62,15.9-6.8,32.22-8.76,49.08-4,17.62,4.93,34.73,1.64,51.84-2.92,12.81-3.42,25.76-6,39.2-4.57A95.34,95.34,0,0,1,271.63,332c8.12,4.07,16.3,8.2,23.8,13.28,36.06,24.37,74.82,28.32,115.65,15.43,22-6.93,44.11-11.4,67.25-9.61a295.44,295.44,0,0,1,48.82,8.32q1-4,1.92-8C513.2,347.38,497.19,344.15,480.56,344.4Z"/><path class="cls-2" d="M391.26,472.88c-20.14,5.31-39.35,2.45-57-8.56-11.76-7.34-23.49-14.88-34.4-23.4-20.59-16.08-42.76-20.92-68.25-14.25-22.33,5.84-45.3,4.71-68.07,2.2-21.58-2.37-43.08-5.49-64.66-7.76.66,1.1,1.34,2.19,2,3.28a193.17,193.17,0,0,1,40.56,6.29c16.13,4.19,32.8,6.62,49.36,8.75s32.78-.88,48.63-5.64c17.78-5.33,33.67-1.83,48.18,9.34,9,6.92,18.12,13.62,27,20.69,20.26,16.18,43,20.4,68.05,15q38.77-8.31,77.6-16.31c3.68-.76,7.37-1.45,11.07-2.12q5.21-5.56,10.06-11.44c-11.12,2.92-22.31,5.61-33.51,8.32C428.87,461.9,410.19,467.89,391.26,472.88Z"/><path class="cls-2" d="M426.39,295.78c-18.78-4.83-37.29-10.88-55.56-17.4-26.47-9.43-53.14-17.91-81.06-21.71-23.85-3.24-47.71-6.42-71.62-9.19-15.25-1.77-30.75-2.88-45.58,2-11.31,3.71-22.11,9-33.09,13.61-16.32,6.91-31.7,16.85-51.8,15.18,6.78,3.36,12.72,5.8,18.94,3.74,9.18-3,18.22-6.6,27.08-10.49,9.18-4,17.94-9,27.13-13,10.15-4.42,20.84-5.33,31.87-3.87,21.33,2.82,42.68,5.54,64.07,7.9,32.52,3.61,64.69,8.92,96.18,18,23.1,6.64,46.06,13.81,69.32,19.88,18.45,4.81,37.6,7.68,56.4,3.76s37.39-9.1,55.82-14.62c-.15-3.53-.39-7-.7-10.53-11.24,4.27-22.69,8-34,12.06C475.76,299.63,451.15,302.14,426.39,295.78Z"/><path class="cls-2" d="M467,338.79c-24.44,4.66-48.82,9.4-73.87,9.59-38.27.3-75.18-6-110.5-21.08-11.71-5-23.6-9.6-35.46-14.23-20.09-7.86-40.3-8.15-60.8-1.26a202.84,202.84,0,0,1-25,6.37c-12.62,2.53-25.19,0-37.54-2.15-19.15-3.35-37,.22-54.59,7.51l-2.71,1.1c.34,3.25.75,6.47,1.22,9.68,8-3.25,15.93-6.54,24-9.58,16.38-6.19,33.25-7.83,50.27-3.42,15.37,4,30.25,2.69,45.27-1.6a276.11,276.11,0,0,1,27-6.2c13.92-2.5,27.48.08,40.27,5.41,13.51,5.63,26.72,12.05,39.77,18.69,32.61,16.59,67.08,22.16,103.11,17.18,17.32-2.4,34.44-6.34,51.63-9.71,27.2-5.34,54-3.54,80.56,3.82q1-4.89,1.86-9.84C510.07,333.71,488.55,334.68,467,338.79Z"/><path class="cls-2" d="M252.48,159.75c29.68-11.93,56.79-6.86,81.66,12.69,11.66,9.17,23.34,18.33,35.31,27.08a69.42,69.42,0,0,0,32.35,13.35c15.71,2,30.06-2.32,43.61-9.58,12.36-6.62,24.36-13.9,36.55-20.82a83.93,83.93,0,0,1,16.84-7.33q-1.56-2.46-3.17-4.89c-1.82.79-3.63,1.68-5.43,2.65-10.64,5.76-20.87,12.28-31.24,18.53-11.77,7.11-23.69,13.86-37.4,16.5-19.18,3.71-36.46-1.31-52-12.4-11.8-8.44-22.93-17.8-34.44-26.65-12.26-9.43-25.36-17.26-41.12-19.06-14.89-1.71-29.21,1.45-43.21,6.16-16.33,5.48-32.71,11.05-50,11.76q-28.89,1.17-57.84.63c-12.12-.2-24.23-.82-36.34-1.4q-3.15,4.56-6.08,9.28,33.37-1.14,66.76-1.69C196.47,174.1,225.1,170.75,252.48,159.75Z"/><path class="cls-2" d="M139.63,204.59c24-4.42,47.83-9.43,71.93-12.92,19.33-2.79,38.35-5.38,55.85-15.11,8.41-4.67,18.15-4.44,27.6-2.48,15.91,3.29,28.84,12.4,41.81,21.46,14.38,10,28.59,20.35,43.4,29.7,10.69,6.75,22.93,10.44,35.64,8.41a142.75,142.75,0,0,0,29.75-8.18c11.07-4.39,21.52-10.38,32.2-15.74,10.92-5.49,22.19-9.66,33.88-11.28q-1.26-2.62-2.58-5.22c-11.53,1.89-22.47,6.26-33.15,11.88-11.56,6.08-23,12.36-34.95,17.72-22.76,10.24-45.32,9.19-66.91-3.54-8.91-5.25-17.31-11.38-25.89-17.19-12.14-8.22-23.8-17.26-36.45-24.6-17.86-10.37-36.54-10.89-55.29-1.33-11.65,5.94-24.31,8.4-37.23,9.82-14.9,1.63-29.82,3.16-44.63,5.34-28.53,4.21-57,8.9-85.49,13.26-1.3.2-2.57.34-3.83.44q-2.15,4.82-4.07,9.74a41.37,41.37,0,0,0,7.7-.68C105.84,211.06,122.72,207.71,139.63,204.59Z"/><path class="cls-2" d="M205.59,185c18.92-2.19,37.49-4.74,54.94-13.3a49.14,49.14,0,0,1,43.14-.52c11.22,5.13,21.79,11.85,32.16,18.62,11.48,7.5,22.19,16.15,33.59,23.77,23.68,15.83,48.58,18,74.34,5.3q16.31-8,32.25-16.73a100.43,100.43,0,0,1,31.81-11.35q-1.47-2.81-3-5.56a84.15,84.15,0,0,0-26,10.12c-6.88,4-13.89,7.83-20.85,11.71-13,7.24-26.29,13.71-41.39,15.32-19.89,2.11-37-4.91-52.66-16.28-12.38-9-24.27-18.71-36.67-27.7-22.34-16.2-46.3-21.55-72.4-9.48-18,8.31-37.12,10.94-56.64,12.33-18.61,1.33-37.17,3.36-55.74,5.17-16.89,1.65-33.75,3.51-50.64,5.07q-2.7,5.17-5.15,10.48c18-2.48,36.05-5.27,54.07-7.86C162.34,191,183.91,187.5,205.59,185Z"/><path class="cls-2" d="M191.09,179.28c22.51-1.66,44.59-4.33,65.57-13.68,21.31-9.5,42.3-7.24,62.29,4.51a166,166,0,0,1,15.14,10c9.85,7.35,19.49,15,29.21,22.48Q404.06,234.09,449,209c11.13-6.21,22.28-12.41,33.56-18.34a84.51,84.51,0,0,1,20.89-7.8c-1.06-1.84-2.15-3.65-3.25-5.45a56.91,56.91,0,0,0-6.82,2.76c-11.62,5.57-22.8,12.1-34,18.52-11.66,6.69-23.38,13.17-36.69,15.91a63.63,63.63,0,0,1-49.82-9.88c-13.22-8.9-25.25-19.54-38.41-28.53-9.4-6.42-19.35-12.53-29.87-16.73C288.47,153,271.65,155,256,161.35c-31.27,12.57-63.88,15.6-97.09,16-20,.25-40,.82-60,1.5q-2.9,4.8-5.57,9.74c11.32-1,22.64-2.1,34-3.19C148.56,183.38,169.79,180.86,191.09,179.28Z"/><path class="cls-2" d="M248.72,154.15A147,147,0,0,1,282.24,147c16.47-1.69,31.64,3.64,45,13.17,11.93,8.53,23.22,17.95,34.88,26.87,4.05,3.1,8.25,6,12.56,8.76,20.72,13.12,42.35,14.37,64.16,3.44,12.23-6.13,23.69-13.78,35.59-20.57,6.36-3.63,12.8-7.19,19.44-10.26l.44-.19q-1.28-1.87-2.58-3.73c-12.23,6.9-24,14.65-36,22-11.35,6.92-23,12.93-36.42,14.94a59.47,59.47,0,0,1-41.69-8.63C367,186.1,357.29,178,347.24,170.38c-3.82-2.89-7.5-6-11.2-9-22.33-18.27-47.33-23-75-15.12-16.67,4.79-33.34,9.61-50.14,13.92-20.9,5.35-42,4.4-63.21,1.53-11.37-1.54-22.75-2.94-34.14-4.34-1.74,2.27-3.44,4.55-5.09,6.87,18.85.58,37.7,1.75,56.55,2.43A225.3,225.3,0,0,0,248.72,154.15Z"/><path class="cls-2" d="M236,151a344.13,344.13,0,0,1,41.2-10.18c17.57-3.33,34.16.88,48.79,10.75,11.87,8,22.79,17.43,34.22,26.12,5.33,4,10.67,8.15,16.33,11.71,19.8,12.45,40.64,13.7,61.51,3.51,11.7-5.72,22.41-13.43,33.74-19.92,6.13-3.51,12.24-7.12,18.48-10.43-.85-1.18-1.71-2.36-2.59-3.52-8.9,5.42-17.59,11.24-26.38,16.85-11.57,7.39-23.09,14.74-36.77,17.83-15.67,3.55-30.92,2-44.27-6.6s-25.89-19.06-38.57-29C330,149,318,140.41,303.09,137c-15.81-3.65-31-.46-46.22,3.56-18.31,4.86-36.5,10.17-54.87,14.75-23.52,5.85-46.83,4-69.81-3.28q-5.72-1.83-11.47-3.5c-1.65,1.94-3.26,3.9-4.84,5.9,9.12,1.14,18.23,2.39,27.26,4C174.9,164.24,205.57,160.85,236,151Z"/><path class="cls-2" d="M93.4,253.4c21.34-5.18,42.5-11.12,63.59-17.22,22.83-6.61,45.59-13.18,69.46-15.06,15.33-1.21,30.12-4.68,44.1-11.56,10.58-5.21,21.79-4.92,32.43-.09,9.12,4.14,17.9,9.07,26.65,14,16.55,9.28,32.62,19.45,49.52,28,19.77,10,41,15.07,63,8.87a319.84,319.84,0,0,0,42.56-15.61,130.23,130.23,0,0,1,40.58-10.91c-.85-2.89-1.74-5.76-2.69-8.6a116.54,116.54,0,0,0-40.65,11.42c-8.9,4.28-18.09,7.93-27.1,12-27.94,12.61-55.45,11.12-82.44-2.72-9.35-4.79-18.46-10.09-27.44-15.56-15.52-9.45-30.78-19.34-46.29-28.81-10.36-6.33-20.38-5.75-30.2,1.81a56.63,56.63,0,0,1-29.52,11.4c-25.78,2.51-50.9,8.09-75.82,15.05q-34.94,9.78-70.35,17.77c-7.84,1.77-15.09,1.67-21.45-.72-.34,1.45-.65,2.9-1,4.36C77.06,254.88,84.85,255.47,93.4,253.4Z"/><path class="cls-2" d="M96.65,261c16.55-4.59,32.93-9.89,49.25-15.28,19.2-6.35,38.15-13.67,58.38-16.09,13.29-1.58,26.71-2.06,40.05-3.38,10.3-1,20.52-2.89,30.82-3.85,23.29-2.16,44.28,5.64,64.66,15.69,18,8.87,35.74,18.36,54,26.59C419.19,276.07,445.1,276.34,471,266c11.39-4.54,22.83-9,34.26-13.42a117.45,117.45,0,0,1,23.21-6.6c-.8-3.36-1.65-6.7-2.59-10a96.77,96.77,0,0,0-22.63,4.88c-15,5.18-29.67,11.57-44.54,17.25-18.43,7-37.2,9.61-56.69,4.53-20.19-5.27-38-15.5-55.69-26-13.44-7.95-26.9-15.9-40.7-23.2-12.49-6.6-25-5.82-38.17-.08-9.79,4.27-20.51,6.77-31.05,8.86-15.29,3-31.08,3.9-46.16,7.66-25.78,6.42-51.1,14.65-76.77,21.52A179.75,179.75,0,0,1,83,256.62c-4.35.38-8.86-1.13-13.31-2.2-.81-.2-1.63-.38-2.44-.54.7.72,1.43,1.38,2.16,2C77.25,262.56,86.74,263.74,96.65,261Z"/><path class="cls-2" d="M483.27,264.18c-14.65,5.48-29.22,11.09-45.08,11.83-20.53,1-39.34-5.35-57.45-14.09-19.23-9.28-38-19.45-57.45-28.32-16.3-7.46-33.6-10.86-51.73-8.34-10.57,1.47-21.15,2.9-31.77,3.89-17.61,1.63-35.51,1.24-52.59,6.48-24.65,7.56-49,15.94-73.73,23.44-8.75,2.66-18,3.92-27,5.45-2.4.41-5.06-.37-7.53-.92-2.26-.49-4.43-1.41-7.61-2.46,10.33,9.36,21.29,9.8,32.59,5.78,15.15-5.38,30.32-10.81,45.07-17.18,23.69-10.22,48-15.74,74-14.07,16.39,1.06,32.84,1.51,49.28,1.85a188.9,188.9,0,0,1,69.31,14.4c20.73,8.61,41.27,17.76,62.28,25.62,25.54,9.56,51.6,11.13,77.63,1.25,11-4.18,22.15-8.12,32.95-12.81a103.2,103.2,0,0,1,17-5.71q-1-5.85-2.28-11.6c-1.31.26-2.63.56-3.94.9C510.89,253.32,497.12,259,483.27,264.18Z"/><path class="cls-2" d="M82.15,226.07A77.47,77.47,0,0,0,95,224.69c18.2-4,36.31-8.34,54.53-12.23,23.35-5,46.65-10.42,70.21-14.12,17.95-2.83,35.38-5.9,51.2-15.58,7.6-4.65,16.13-4.13,24.5-1.08,13.65,5,25.48,13,37.35,21.15,14.08,9.61,27.93,19.68,42.67,28.17,21.13,12.18,43.62,13.57,66.22,3.92,13.76-5.88,27.25-12.41,40.77-18.85a105.17,105.17,0,0,1,32.88-9.69q-1.11-2.52-2.25-5a106.82,106.82,0,0,0-42,14.52c-8.08,4.76-16.72,8.62-25.26,12.53-23.12,10.59-46.18,11.87-68.64-1.71-9.26-5.6-18.08-12-27.06-18-12.54-8.49-24.61-17.76-37.64-25.39-16.93-9.91-34.48-10.92-52.27-.74-6.11,3.49-13.21,5.68-20.14,7.18-9.47,2-19.27,2.53-28.82,4.25-26,4.68-52,9.73-78,14.5-16.28,3-32.56,6.06-48.94,8.42a33.67,33.67,0,0,1-4.08.34q-1.62,4.29-3.07,8.64A30.92,30.92,0,0,0,82.15,226.07Z"/><path class="cls-2" d="M487.42,279.4c-25.77,10.32-52,11.66-78.09,2.48-19.81-7-39.24-15.08-58.52-23.4-23.64-10.21-47.88-17.38-73.77-18.24-21.22-.7-42.43-1.56-63.66-2.16a124.35,124.35,0,0,0-50,8.95c-8.58,3.43-17,7.25-25.74,10.27-18.58,6.42-36,17.82-57.73,13.15,6.76,5.07,13.32,7.38,20.25,4.92,14.38-5.08,28.94-10.1,42.47-17,24.6-12.56,50-17.42,77.34-13.22,15,2.3,30,4.39,45.05,5.83,27.54,2.64,54.61,7.49,80.9,16.17,22.37,7.39,44.46,15.65,67,22.64,23.16,7.2,46.94,10,70.72,3.16,16.81-4.81,33.27-10.87,49.89-16.39l.11,0c-.45-4.59-1.05-9.13-1.77-13.64-2.44.68-4.88,1.48-7.33,2.42C512.14,270.06,499.68,274.48,487.42,279.4Z"/><path class="cls-2" d="M94.72,244.74c20.1-4.93,40.2-9.88,60.16-15.29,24.62-6.68,49.09-13.79,74.66-16,13.47-1.16,26.62-3.74,37.64-12.35,10.46-8.17,21.28-8.49,32.48-1.94,8.68,5.06,17.23,10.33,25.84,15.52,16.11,9.7,31.82,20.15,48.43,28.91,19.83,10.46,41.2,15.37,63.29,8.18,14.65-4.76,28.78-11.19,43-17.23,13.38-5.68,26.9-10.61,41.44-12-.67-1.91-1.36-3.8-2.07-5.69a117.42,117.42,0,0,0-43.71,13.64C467.16,235.15,458,239,449,242.92c-22.63,9.87-45.56,11-68.11.37-11.93-5.59-23.31-12.48-34.57-19.37-15.9-9.75-31.32-20.28-47.22-30-10.54-6.45-21.06-5.85-31.31,1.61a58.12,58.12,0,0,1-28.39,10.57c-27.35,2.89-54,8.89-80.55,16q-32.52,8.73-65.43,16c-7.16,1.59-13.85,1.76-19.87.14q-.82,3-1.57,6.09a26.87,26.87,0,0,0,10.44,1.76A56.68,56.68,0,0,0,94.72,244.74Z"/><path class="cls-2" d="M84.46,236.58a69.79,69.79,0,0,0,10.9-1.43c20.28-4.87,40.58-9.67,60.75-15,24.51-6.43,49-13,74.31-15.38,13-1.24,25.62-3.9,36.43-11.75,10.62-7.7,21.54-8.17,32.73-1.82,9.28,5.28,18.51,10.68,27.42,16.54,17.18,11.3,33.57,23.84,52.48,32.34,20.56,9.24,41.49,11.17,62.63,2.5,14.28-5.85,28.24-12.52,42.37-18.77a115.85,115.85,0,0,1,34.09-9.61l-2.08-5.11A113.53,113.53,0,0,0,473,223.27c-8.75,4.88-18,8.88-27.2,12.91-25.24,11.09-50,9.87-73.87-4-10.87-6.31-21.24-13.53-31.58-20.72-13.48-9.37-26.6-19.23-41.8-25.88-11.13-4.87-21.21-4-31.93,1.86a107.59,107.59,0,0,1-26.62,10c-11.44,2.68-23.42,3-34.93,5.4-27.11,5.69-54,12.23-81.12,18-13.67,2.93-27.46,5.48-41.32,7.37a27.78,27.78,0,0,1-6.29.15q-1.16,3.62-2.21,7.27A30.56,30.56,0,0,0,84.46,236.58Z"/><path class="cls-2" d="M159.11,448.58c-14.88-9.25-30.55-11.38-47-7.8q3.61,4.82,7.46,9.41C132.36,446.06,145.42,444.22,159.11,448.58Z"/><path class="cls-2" d="M226.59,99.89c16.25-4.53,32.18-10.19,48.37-15,21.52-6.35,41-2.33,58.1,12.44,4.11,3.55,8.12,7.21,12.3,10.66,10.46,8.62,20.55,17.78,31.61,25.55,14.11,9.9,30,12.45,47,8.38,12.5-3,23.63-8.63,34.29-15.3q-3.64-3.33-7.44-6.5c-3.09,1.88-6.21,3.69-9.43,5.32-23.24,11.8-46.27,10.79-67.76-4.62-9.31-6.68-17.82-14.47-26.78-21.66-7.09-5.69-14.05-11.58-21.53-16.71-8.78-6-18.84-9.49-29.45-7.6a299.05,299.05,0,0,0-39.39,9.32c-28.86,9.3-57.67,18.6-88,21.34-3.45,2.34-6.83,4.78-10.15,7.29,1.53,0,3.07-.12,4.62-.25C184.68,110.88,205.72,105.7,226.59,99.89Z"/><path class="cls-2" d="M272.81,76.21c26.26-8.74,49.29-3.8,69.35,15.31,5.2,5,10.69,9.61,16.16,14.26,4.13,3.51,8.41,6.87,12.71,10.17,24.37,18.75,49.82,19.14,75.83,3.86.7-.41,1.39-.83,2.08-1.25q-3.45-2.84-7-5.54c-13.93,6.87-28.73,9.49-44.23,5.73-11.91-2.89-21.84-9.56-31.14-17.22-11.33-9.34-22.29-19.14-33.92-28.09A47.56,47.56,0,0,0,318.93,66c-6.24-.49-12.56-.76-18.93-.76-2.48,0-4.95,0-7.42.13-12.93,3.08-25.75,6.75-38.39,10.87-22.34,7.28-44.63,14.68-67.83,18.31-4.41,2.45-8.73,5-13,7.73,16.11-2.54,32.14-5.88,47.91-10C238.7,87.77,255.75,81.9,272.81,76.21Z"/><path class="cls-2" d="M114.63,428.46c-4.07-.52-8.12-1.25-12.19-1.64.32.49.64,1,1,1.47A87.84,87.84,0,0,1,114.63,428.46Z"/><path class="cls-2" d="M460.23,413.25c-14.42,8.17-29.05,16-43.52,24.06-19.36,10.83-39,11-58.56,1.11C347.5,433,337.29,426.76,327,420.66c-12.47-7.4-24.57-15.46-37.25-22.49a77.86,77.86,0,0,0-47.56-9.32,260.56,260.56,0,0,1-28.17,2c-39.58.13-79.17.26-118.75-.31q-6-.09-11.92,0,1.91,4.54,4,9c22.73.85,45.44,2.06,68.18,2.43,23.11.37,46.41.93,69.32-1.47,31.88-3.34,60.85,2.39,87.59,19.88,4.67,3.05,9.31,6.19,14.14,9,11.3,6.53,22.45,13.4,34.14,19.18,16.65,8.23,33.82,8.29,50.8.5,8-3.65,15.9-7.38,23.66-11.45a259.84,259.84,0,0,1,71-25.28c1.42-2.6,2.78-5.23,4.1-7.89-2.87-.09-5.74-.18-8.61-.3C487,403.46,473.15,405.92,460.23,413.25Z"/><path class="cls-2" d="M277,66.38a233.33,233.33,0,0,0-83.27,24.25c21.49-4.1,42.32-10.92,63.05-18C263.47,70.32,270.23,68.26,277,66.38Z"/><path class="cls-2" d="M67.46,267.85c1.8.47,3.61.94,5.44,1.38a64.65,64.65,0,0,0-5.06-4.09C67.71,266,67.59,267,67.46,267.85Z"/><path class="cls-2" d="M135.75,436.81a89.88,89.88,0,0,0-30.61-5.89q2.63,3.88,5.4,7.67A72.37,72.37,0,0,1,135.75,436.81Z"/><path class="cls-2" d="M221.4,148.14c15.81-4.85,31.82-9.15,47.89-13,24.75-6,47-.24,66.91,15.47,2.34,1.84,5,3.28,7.5,4.91-9-8.91-18.88-16.64-30.28-22.28-15.1-7.47-30.8-6.13-46.31-2.26-19.77,4.94-39.26,11-59,16.05-16.86,4.32-33.9,7.44-51.54,5.54-11.09-1.2-21.26-4.95-31.2-9.38-1,1.1-2,2.19-2.93,3.31.78.26,1.56.51,2.33.79C157,158.61,189,158.08,221.4,148.14Z"/><path class="cls-2" d="M204.18,114.41c25.64-6.38,51.06-13.62,76.54-20.62,13.59-3.74,26.52-2,38,5.8,9.45,6.43,18.07,14.11,26.87,21.46,7.84,6.54,15.25,13.59,23.16,20.06,21.56,17.63,45.12,19.78,70.33,8.65,9.6-4.24,18.13-10,26.45-16.2q-2.75-2.73-5.58-5.35c-3.23,2.12-6.49,4.17-9.82,6.13-14.93,8.75-31.19,13.75-48.95,11.46-12.43-1.61-23.13-7.22-32.76-14.77-9.16-7.18-17.75-15.08-26.59-22.67-2.06-1.77-4.15-3.51-6.11-5.39-19-18.22-40.93-22.37-65.86-14.19-19.81,6.5-39.79,12.56-59.92,18-17.9,4.8-36,8.6-54.77,8.52q-4,3.13-7.82,6.44h.12C166.83,122.92,185.63,119,204.18,114.41Z"/><path class="cls-2" d="M81.68,278.67a80.49,80.49,0,0,0-14.59-8.08q-.33,2.63-.6,5.25c.73.05,1.46.12,2.2.22C73.06,276.64,77.36,277.78,81.68,278.67Z"/><path class="cls-2" d="M241.7,501.58c-3.86,2.22-7.43,4.93-11.22,7.29-7.7,4.8-15.52,7.19-23.46,6.72q4.62,2,9.34,3.79A44.93,44.93,0,0,0,230.48,514c3.58-2.06,7.17-4.13,10.86-6,9.75-4.91,18.84-3.55,27.1,3.37,3.9,3.27,7.53,6.88,11.36,10.25,1.51,1.34,3.25,2.43,4.88,3.64-6.38-6.9-12.6-14-19.2-20.64C258.07,497.16,250.86,496.33,241.7,501.58Z"/><path class="cls-2" d="M419.33,389.93a257.78,257.78,0,0,1-25,13c-11.05,5.08-22.68,7.45-34.92,5.34a79.92,79.92,0,0,1-29.19-11.43c-12.27-7.74-24.21-16-36.41-23.88-13.08-8.43-26.9-15.17-42.54-17.52-19.66-2.95-39.16-.41-58.68,1.55-15.23,1.53-30.41,3.39-45.82,1.68-11.37-1.26-22.88-2.38-34.27-1.95S91,363,80.68,368.5c8.74-.86,16.94-2.05,25.17-2.39,8.44-.34,16.92.12,25.38.25,7.66.13,15.33.66,23,.36,26.79-1.08,53.57-2.92,80.37-3.44A136.81,136.81,0,0,1,266.7,367c17.39,3.88,31.92,14.06,46.77,23.44,12.64,8,25.48,15.77,38.73,22.68,9.74,5.07,20.74,7.36,31.59,4.52A129.57,129.57,0,0,0,409,407.74c11.39-5.71,22.25-12.46,33.4-18.64,11.32-6.27,23.49-9.54,36.37-7.65,13,1.9,26,4.05,39,6.25.37-.91.73-1.82,1.09-2.74-11.7-2.47-23.42-4.87-35.17-7.06C460.94,373.64,439.37,377.92,419.33,389.93Z"/><path class="cls-2" d="M166.27,137.54c30-3.11,58.6-11.83,87.25-20.63a229.6,229.6,0,0,1,32.09-7.17c14.11-2.22,27.09,2.05,38.21,10.55s21.45,18.09,32.14,27.19c9.86,8.39,19.94,16.47,32.16,21.3,18.91,7.48,37.41,4.51,54.44-4.7,11.2-6.06,21.69-13.46,32.24-20.74-.71-.79-1.43-1.58-2.15-2.36-.77.57-1.54,1.14-2.32,1.7-11.09,8.13-22.4,15.75-35.45,20.57-24,8.85-46.25,5.7-66.25-10-12.4-9.76-23.95-20.61-35.94-30.89-10.15-8.69-20.81-17.08-34.64-18-7.91-.52-16.19.8-24,2.7-26.89,6.61-53.55,14.19-80.46,20.71-15.95,3.86-32.16,6.65-48.8,4.71A55.9,55.9,0,0,1,137.1,131c-1,1-2,1.89-2.93,2.86C144.09,137.9,154.92,138.72,166.27,137.54Z"/><path class="cls-2" d="M448.6,403.79c-11.37,7.07-23.12,13.53-34.66,20.32q-29.83,17.53-60.68,1.94c-6.11-3.09-12.17-6.34-18-9.93-12.36-7.6-24.39-15.75-36.86-23.17a109,109,0,0,0-59.74-15.85c-17.39.49-34.77,1.44-52.17,1.87-20.58.5-41.17.75-61.75.94-13.89.13-27.79-.38-41.66,0-1.27,0-2.52.13-3.76.24,1,2.71,2,5.4,3.11,8.06,25.35.22,50.7,1,76,.76,26.63-.27,53.28-1.3,79.88-2.73,18.52-1,36.33.41,52.85,9.6,6.69,3.72,13.34,7.51,19.87,11.48,14.17,8.61,28,17.77,42.45,25.93,11.76,6.66,24.47,11,38.39,9.56,11.36-1.18,21.27-6.4,31.07-11.75,13.3-7.26,26.35-15,39.86-21.81,6.15-3.11,13.1-6.26,19.77-6.44,9.53-.27,19.06-.33,28.59-.29,1-2.1,2-4.22,3-6.36-5.34-.72-10.67-1.44-16-2.2C480.44,391.5,464,394.23,448.6,403.79Z"/><path class="cls-2" d="M475.77,383.58c-13.25-1-25.07,3.68-36.37,10-11.84,6.61-23.54,13.46-35.47,19.9-18.28,9.87-36.93,9.93-55.57,1a182.33,182.33,0,0,1-17.65-9.59c-11.91-7.42-23.51-15.34-35.43-22.75-20.55-12.79-43-18-67.16-16.63-25.18,1.4-50.38,2.83-75.59,3.57-18.33.54-36.71-.41-55,.05a63.4,63.4,0,0,0-20.56,4.12c.58,1.77,1.19,3.53,1.81,5.29A122.31,122.31,0,0,1,98.8,377c42.83,1.23,85.57-.35,128.33-2.14,12.92-.53,25.82-.61,38.59,2.29,19.35,4.4,36,14.24,52.49,24.72,12.1,7.7,24.29,15.33,37,22,10.67,5.61,22.46,9.31,34.6,6.26A117.34,117.34,0,0,0,415,420.34c13.85-7.21,27.13-15.51,40.78-23.11,7.33-4.08,15.36-6.94,23.77-6.27,11.85,1,23.69,2.05,35.53,3.21.6-1.38,1.2-2.77,1.78-4.17q-9.63-1.81-19.27-3.58A210.5,210.5,0,0,0,475.77,383.58Z"/><path class="cls-2" d="M202.93,123.14c25.34-6.28,50.51-13.27,75.72-20,15.09-4,29.42-2.12,41.93,7.07C331.87,118.47,342.22,128,353,137c5.52,4.6,11,9.23,16.62,13.71,22.37,17.84,46.42,19,71.76,7.09,10.67-5,20.07-11.86,29.35-18.9-1.07-1.14-2.16-2.26-3.25-3.37-9.88,7.34-20.2,14-31.9,18.47-23.65,9.05-45.86,6.67-65.83-9.09-12.26-9.68-23.56-20.57-35.53-30.62A152.88,152.88,0,0,0,316.12,101c-11-6.77-23-8.13-35.46-4.6-21.29,6-42.43,12.66-63.92,17.88-20.71,5-41.54,10-63.09,10.26a70.84,70.84,0,0,1-9.08-.47q-2.67,2.37-5.28,4.81A58.14,58.14,0,0,0,151,130.4C168.72,130.89,185.92,127.36,202.93,123.14Z"/><path class="cls-2" d="M310.3,515.48c-11.21-.73-20.44-6-27.68-14.48-4.77-5.56-9-11.56-13.51-17.37-2.05-2.65-3.92-5.47-6.18-7.92-5.15-5.59-10.46-6.65-17.23-3.17-3.66,1.88-6.87,4.62-10.41,6.75-4.76,2.87-9.43,6-14.51,8.18-9.37,4-18.48,2.7-26.7-3.33-5.52-4.06-10.9-8.34-16.19-12.71-12.37-10.22-25.55-11.37-40.21-5.06l-2.27,1c3.79,3.72,7.7,7.33,11.73,10.79.89-.35,1.77-.7,2.67-1a27.81,27.81,0,0,1,24.83,2.45,157.22,157.22,0,0,1,17.28,12c10.42,8.43,21.07,8.83,32.25,2,6-3.67,11.79-7.63,17.83-11.18,10.55-6.18,17.35-5,25.2,4.27a161.68,161.68,0,0,1,10,13.4c9.82,14.52,23,22.5,40.93,22.17,20.07-.38,40.15-.57,60.22-.85q10.33-3.66,20.2-8.23c-19.85,1-39.7,2-59.56,2.82A278,278,0,0,1,310.3,515.48Z"/><path class="cls-2" d="M360.73,483.51c-12.55,1.05-24.56-2.64-35-9.58-13-8.65-25.45-18.13-38-27.49-11.35-8.49-23.47-14.5-38.08-12.05-8.15,1.36-16.11,3.81-24.21,5.51-20.52,4.29-40.95,2.64-61.28-1.44-11.71-2.35-23.36-5-35-7.47,25.52,8.07,49.92,21,77.57,20.15,9.84-.3,19.6-3.63,29.39-5.61,6.83-1.37,13.61-3.63,20.5-4,9.17-.5,16.89,4.19,23.75,9.93,7.34,6.15,14.62,12.38,21.68,18.85,17.33,15.88,37.75,21.34,60.66,18,27.44-4,54.82-8.33,82.27-12.27,4-.57,8-1.1,12-1.6q5.52-5,10.7-10.26c-22,4.25-43.83,9.3-65.83,13.47A402.14,402.14,0,0,1,360.73,483.51Z"/><path class="cls-2" d="M284.94,519.74a29.52,29.52,0,0,0-2.95-2.35c-4.85-6.09-9.52-12.34-14.58-18.25-8.63-10.07-14.9-10.94-26.28-4.33-6.47,3.76-12.85,7.73-19.61,10.9-10.28,4.81-20.44,4-30-2.44-4.5-3-9-6-13.39-9.23-6.82-5-13.62-7.18-20.43-7.33q6.48,4.95,13.31,9.44a57.93,57.93,0,0,1,9,5.06c3.15,2.16,6.56,3.93,9.83,5.93,14.11,8.62,27.79,7.46,41.19-1.7a115.48,115.48,0,0,1,10.89-6.9c8.83-4.69,16.26-3.81,23.8,2.79,2.87,2.5,5.3,5.51,8,8.25s5.35,5.37,8,8.06a48,48,0,0,0,24.88,17c7-.19,14-.71,20.83-1.51-3.85-.09-7.71-.17-11.56-.3C304,532.46,293.47,528.33,284.94,519.74Z"/><path class="cls-2" d="M310.59,524.15c-13.74-.45-24-7.76-32.13-18.36-3.69-4.8-7.14-9.8-10.83-14.61-9.15-12-14.73-12.9-27.49-4.76-4.84,3.09-9.64,6.23-14.54,9.23-12,7.41-23.67,7.27-34.95-1.85-4.71-3.8-9.73-7.24-14.77-10.59-8.45-5.63-17.38-6.48-26.68-3.33q2.53,2.13,5.13,4.19,12-.84,23.13,6.5c5.33,3.51,10.55,7.18,15.86,10.72,8.36,5.57,17.31,6.52,26.38,2.32A210.31,210.31,0,0,0,239,493.07c13.56-8.11,21-7,31.15,5.18,3.28,3.92,6.57,7.84,9.59,11.95,10.34,14.07,24.44,20.59,41.62,20.64q10.46,0,20.91.1a234.58,234.58,0,0,0,25.38-6.1l-1.48,0C347.64,525.44,329.09,524.75,310.59,524.15Z"/><path class="cls-2" d="M293.7,532.88c.83.64,1.67,1.24,2.53,1.81,1.26,0,2.51,0,3.77,0l1,0c-1.66-.54-3.32-1.07-5-1.52A16.39,16.39,0,0,0,293.7,532.88Z"/><path class="cls-2" d="M376,496.8c-15.88,1.34-31.84,2.21-47.77,2.41-10.87.14-20.58-4.46-28.73-11.52C292,481.11,285,473.86,277.71,466.9c-2.54-2.43-4.95-5-7.64-7.24-7.44-6.22-15.74-8.11-25-4.5-3,1.16-6,2.16-8.85,3.59-18.94,9.55-37.77,8.58-56.62-.25-2.7-1.26-5.54-2.23-8.31-3.33,10.69,8.45,20.81,18.49,35.28,19.33,6.89.4,14.1-1.65,20.9-3.52,5.48-1.51,10.57-4.4,15.82-6.7,9.82-4.3,18.79-3,26.33,4.66,5.56,5.69,10.75,11.77,15.89,17.87,10.75,12.75,24.11,19.62,41,18.58,17.82-1.09,35.63-2.35,53.45-3.51L424.55,499q6.52-4.1,12.75-8.59l-4.2.37C414.05,492.52,395.09,495.18,376,496.8Z"/><path class="cls-2" d="M323.83,507.9c-14.74.6-27.05-5.11-37-15.91-4.42-4.82-8.53-9.92-12.92-14.77a88.57,88.57,0,0,0-8.46-8.43,17.22,17.22,0,0,0-18.36-3.06c-7.41,2.88-14.7,6.09-22.14,8.9-13.7,5.17-26.6,3.32-38.61-5-5.64-3.9-11.27-7.82-16.84-11.82-13.25-9.53-27.71-11.55-43.14-6.76q-2.37.74-4.74,1.52,5.76,6.72,12,13c3.43-1.4,6.87-2.78,10.37-3.95,10.58-3.53,20.84-2.34,30.1,4.12,5.49,3.82,10.74,8,16,12.2,14.44,11.65,26.64,11.92,41.62.89a106.24,106.24,0,0,1,12.26-8.28c8.28-4.46,14.89-3.42,21,3.66,5,5.77,9.25,12.19,13.86,18.3,7.9,10.47,17.06,19.28,31,20.19a304.55,304.55,0,0,0,32.53.77c20.57-.87,41.14-2,61.7-3q8.1-4,15.84-8.62-28.45,1.74-56.92,3.5C349.91,506.12,336.89,507.37,323.83,507.9Z"/><path class="cls-2" d="M354.76,491.49c-21.66,2.33-39.58-6.09-55.42-20.07-6.94-6.13-13.92-12.23-21-18.23-10.55-9-22.3-11.49-35.71-7.16a191.8,191.8,0,0,1-27.65,7.2c-17.15,2.81-33.56-1.7-49.74-6.91a24,24,0,0,0-5.43-1.3c19.74,10.94,39.27,23,63.47,15.91,5.47-1.6,10.66-4.19,15.94-6.41,15.28-6.43,25.1-4.54,36.92,7.06,8.21,8,16.18,16.36,24.84,23.9,10.05,8.75,22.11,12.5,35.49,11.3,31.93-2.87,63.84-5.94,95.78-8.69l9.23-.79q5.83-4.43,11.4-9.2c-16.25,2.52-32.5,5-48.79,7.31S371.24,489.72,354.76,491.49Z"/><path class="cls-2" d="M441.45,181.2c-24.9,12.15-49.4,9.94-72.29-6.22-4.55-3.21-9.08-6.47-13.61-9.71,5.1,4.44,9.95,9.22,15.36,13.25,23.37,17.38,47.94,19,73.35,4.7,6.79-3.82,13.26-8.23,19.86-12.38,7.34-4.6,14.54-9.45,21.9-14-.48-.61-.94-1.23-1.42-1.84-.78.5-1.57,1-2.36,1.48C468.71,164.84,455.68,174.25,441.45,181.2Z"/><path class="cls-2" d="M277.1,524.92c2.15,1.7,4.38,3.3,6.58,5a176.54,176.54,0,0,0-17.27-16.71c-7.48-6.37-15.77-7.09-24.45-2.51-3.67,1.94-7.25,4-10.89,6A51.24,51.24,0,0,1,220.7,521c2.53.91,5.08,1.77,7.65,2.6,4.17-1.35,8.36-2.66,12.41-4.29C254.05,514,266,516.2,277.1,524.92Z"/><path class="cls-2" d="M428.07,103.27q-6.46-4.23-13.23-8c-12.07,0-23.53-4.45-34.12-13.7-1.26-1.1-2.5-2.23-3.75-3.35q-9.66-3.36-19.68-5.87Q367,81.1,376.75,89.75C392.44,103.59,409.66,108.09,428.07,103.27Z"/><path class="cls-2" d="M184.79,142.16c25.7-6,51.1-13.31,76.64-20,12.86-3.38,25.87-6,39.21-3.68,14.9,2.54,26.41,11.46,37.6,20.83,9.54,8,18.94,16.16,28.64,23.94,25.59,20.54,53,20.89,80.74,5.45,10.89-6.05,21-13.5,31.34-20.57l-1.91-2.25-3.94,2.78c-15.58,11-31.4,21.21-50.5,25.2-15,3.13-29.42,1.61-42.51-6.19-9.54-5.68-18.39-12.6-27.15-19.48-6.52-5.11-12.53-10.89-18.54-16.62-19.24-18.4-41.39-23.77-67-16.12q-34.09,10.17-68.53,19.14c-15.59,4-31.47,6.59-47.78,5.61a55.65,55.65,0,0,1-18.8-4.4l-1.75,1.79C147.53,145.73,165.82,146.59,184.79,142.16Z"/><path class="cls-2" d="M373.9,103.89c20.46,16.19,42.68,18.26,65.62,7.33q-4.27-3.16-8.68-6.13C412,111,394.13,107.17,378,94c-4.2-3.43-8.26-7-12.35-10.6-4.7-4.08-9.28-8.32-14-12.41a234.83,234.83,0,0,0-24.77-4.17A77.49,77.49,0,0,1,342.07,77C352.67,86,363,95.27,373.9,103.89Z"/><path class="cls-2" d="M243.53,527.88a233,233,0,0,0,32.79,5.67C265.72,527,254.9,525.07,243.53,527.88Z"/><path class="cls-2" d="M200.66,146.11q31.47-8,62.68-17.05c28.19-8.19,52.76-2.35,74.48,17.33,9.21,8.34,19,16,28.87,23.67,25.5,19.79,52.7,21,80.51,5.69,12.36-6.78,23.76-15.3,35.67-22.91-.63-.78-1.25-1.57-1.89-2.34l-6.79,4.66c-12.1,8.35-24.24,16.5-38.11,21.74-22.84,8.62-44.68,6.85-64.57-7.44-12.67-9.1-24.37-19.55-36.46-29.46-9.54-7.82-19.3-15.23-31.57-18.33-13.32-3.37-26.34-.86-39.18,2.49-23.71,6.19-47.23,13.14-71,19-16.65,4.12-33.86,6.54-50.6,1.39a83.09,83.09,0,0,1-13.43-5.64c-.7.74-1.39,1.48-2.08,2.23,8.49,3.81,17.18,7.05,26.55,8.43C169.65,152,185.29,150,200.66,146.11Z"/><path class="cls-2" d="M246.23,520.32c-4.49,1.51-9,3-13.45,4.63,2,.6,4,1.18,6.08,1.73,13.56-5.18,26.61-3.16,39.13,5.07,1.2.79,2.42,1.54,3.65,2.28l2.88.19A156.9,156.9,0,0,0,270,523.45,26.28,26.28,0,0,0,246.23,520.32Z"/><path class="cls-2" d="M409.4,92.28a234.41,234.41,0,0,0-25.91-11.72c7.28,5.93,15.42,10.3,25.09,11.63C408.85,92.23,409.12,92.25,409.4,92.28Z"/></svg>