<svg id="Layer_1" data-name="Layer 1" xmlns="http://www.w3.org/2000/svg" viewBox="0 0 600 600"><path d="M506.72,445.76H112.5c-.23-5.13-.6-9.6-.61-14.08,0-69.85-.2-139.7.3-209.55,0-5.79,3-13.86,7.37-17,62.74-44.76,126-88.84,190-133.77q47.12,32.85,94.47,65.89c31.59,22.08,63.31,44,94.52,66.6,4.37,3.16,8.74,9.86,8.78,14.95.55,74,.36,148,.31,222A33.71,33.71,0,0,1,506.72,445.76ZM344.47,316.34l141-98.79c-2.78-1.59-4-2.18-5.11-3C425.9,176.42,371.39,138.35,317.17,99.86c-7-5-11.31-2.21-16.81,1.67q-74.24,52.29-148.64,104.35c-5.4,3.79-10.83,7.55-17.23,12L275.21,316.4c9-6.16,18-11.69,26.14-18.23,6-4.81,10.57-5.29,16.8-.25C326.32,304.54,335.37,310.06,344.47,316.34ZM152.79,426.08H466.92c-52-36.43-101.44-71.26-151.22-105.66-2.71-1.88-9-1.89-11.71,0C254.23,354.81,204.77,389.63,152.79,426.08Zm334.47-9.64V240.06L361.32,328.3ZM132,239.81V416.9l126.43-88.53Z"/></svg>