<svg id="Layer_1" data-name="Layer 1" xmlns="http://www.w3.org/2000/svg" viewBox="0 0 576 864"><path d="M324.38,615.22c-26.29-.11-45.58-.44-64.66-4-32.62-6.1-64.09-15.61-93.33-31.6-17.77-9.71-34.09-21.33-46.85-37.33-10.11-12.68-16.43-26.76-15.61-43.42,1.18-24,10.48-43.65,30.74-57.42a28.81,28.81,0,0,1,4.9-2.69c2.61-1.1,4.6-.37,6.22,2s1,4.35-.88,6c-3.13,2.76-6.4,5.38-9.71,7.93C122.29,464.57,116.67,478,115,493.94c-2.18,20.78,6.2,36.93,20.39,51,15.18,15.1,33.11,26,52.54,34.53,27.9,12.28,57.2,19.38,87.36,23.13a347.86,347.86,0,0,0,76.46.89c37.26-3.59,73.26-12.39,106.89-29.4,17.68-9,33.76-20.14,46.88-35.17,7.08-8.1,12.71-17.24,14.25-27.94,3.59-25.06-3.34-46.12-25.18-60.84-1.11-.74-2.18-1.54-3.23-2.36-2.85-2.24-3.35-4.41-1.66-7.08,1.78-2.82,4-3.39,7.34-1.49A71.88,71.88,0,0,1,516.6,456c9.89,12,13.39,26.07,14.53,41.26,1.41,18.85-5.93,34.14-17.74,47.89-13.49,15.69-30.27,27.13-48.43,36.66-27.25,14.29-56.28,23.35-86.48,28.75C354.63,614.83,347.61,615.23,324.38,615.22Z"/><path d="M390.47,428.3c0,35-24.74,65.68-57.28,73.41-28.93,6.88-58.54-4.3-76.79-28.93-11.37-15.36-16.67-32.55-13.56-51.45,1.44-8.72,4.89-17.25,8.35-25.49,9.82-23.38,23.13-44.87,37.17-65.9,7.25-10.87,14.82-21.53,22.43-32.16,3.52-4.91,7.51-5,11-.1,22.75,31.88,44.95,64.11,60.58,100.28C386.86,408.36,391,418.9,390.47,428.3ZM316.19,308.53c-1.53,2-2.81,3.45-3.87,5.06-10.77,16.34-21.79,32.51-32.14,49.1-9.61,15.4-18.05,31.47-24,48.71-8.07,23.24-2.6,43.88,13.37,61.59s36.7,22.21,59.47,18.77c15.62-2.37,28-10.83,37.53-23.08,11.37-14.68,16.05-31.37,11.91-49.88-2.53-11.28-7.51-21.65-12.72-31.88-13.32-26.14-29.63-50.42-46.35-74.46C318.52,311.25,317.5,310.14,316.19,308.53Z"/><path d="M318.48,567.11c32.33,1.11,64.25-5.44,94.86-18.47,16.91-7.19,32.52-16.51,45.33-29.95,7.22-7.57,13.47-16,14.85-26.6,2.2-16.89-1.46-32-15.67-43.16-2.31-1.81-4.6-3.65-6.76-5.62-1.67-1.51-2.29-3.34-.9-5.48s3.14-3.22,5.62-2.36a19.35,19.35,0,0,1,4.54,2.17c15.48,10.46,23.2,25.15,24.22,43.73,1,17.92-6.72,31.91-18.89,44.14C449,542.28,429,553.82,407.09,562.15c-34.72,13.18-70.7,18-107.68,15.45-32.52-2.21-63.48-10.27-92.51-25.23-16.09-8.3-30.79-18.52-42.44-32.63-6.35-7.69-12.08-16.08-13.17-26.11-2.48-22.78,3.09-42.49,24.46-56.64,4.58-3,6.37-2.79,9.38.82,1.33,1.6,1.35,3.12,0,4.5a56.27,56.27,0,0,1-6.14,5.52c-16.65,12.33-20.09,29.23-16.21,48.26,1.78,8.75,7.46,15.67,13.49,22.06,13.19,14,29.37,23.52,46.86,31A223.37,223.37,0,0,0,318.48,567.11Z"/><path d="M315.87,542c-30,1.14-58.47-7.74-84.87-23.84-13.32-8.13-24.61-18.57-31.8-32.68-9-17.56-.84-42.59,16.54-52,2.26-1.22,4.47-1.77,6.62.27s2.48,4.18.41,6.51a23,23,0,0,1-4.11,3.78c-16.58,11.58-14.23,35.43-4.86,46.38a103.61,103.61,0,0,0,33.89,25.86c26.68,13,55,17.25,84.34,15,23-1.79,44.74-8.13,64.7-19.9,10.37-6.11,19.57-13.65,26.57-23.54a32,32,0,0,0-6.39-43.45c-1.25-1-2.55-1.94-3.77-3-2.27-1.95-2.54-4.09-.91-6.58s4-3.25,6.66-1.72a39.21,39.21,0,0,1,19.27,24.78c4.38,16.38-.75,29.81-12,41.94-17.44,18.78-39.28,29.69-63.41,36.57C344.59,541.54,338.07,542.05,315.87,542Z"/></svg>