<svg id="Layer_1" data-name="Layer 1" xmlns="http://www.w3.org/2000/svg" viewBox="0 0 600 600"><path d="M303.48,481.81c-10.51,0-21,.26-31.54-.05-13-.39-17.4-5.7-16.06-18.2,2.54-23.8,6.14-47.58,7-71.45.34-9.7-5.06-19.75-8.79-29.27-.53-1.37-6.76-1.8-9.67-.76C214,373,194.61,364.72,180.74,335.92c-2-4.16-9.35-7.27-14.65-8.08-27.19-4.15-45.28-20.3-51-46.83-7-32.34,17.67-65.37,50.8-68.09,16.16-1.33,17.15-3,9.81-16.68-9.27-17.25-7.3-37.5,5-51.74s31.92-19.42,50.45-12.15c9.2,3.61,12.38,1.56,14.62-8C252.7,95,275.36,76.75,303,77c27.24.25,49.12,18.42,56.18,47,2,8.08,4.48,13,14.57,9.33,10.28-3.77,20.3-1,27.37,7.49,4.57,5.52,8.67,6.11,15.18,4,19.25-6.37,37.2.73,46.21,17.48,9.3,17.3,5.05,35.82-11.34,49.32-9,7.4-8.69,10.51,1.56,16.18,26.43,14.62,37.37,36.63,32.13,64.65-4.48,23.91-24,43.76-50.65,45.17-16.28.86-27.39,1.88-35.71,18.64-5.93,11.95-23.23,11.43-34.59,3-11.74-8.72-11.58-7.74-16.53,6.22-9.32,26.29,1.44,51.36,2.53,77,.32,7.52,2.09,15,2.81,22.48,1.05,10.91-3.77,16.44-15.13,16.82S314.83,481.8,303.48,481.81Zm-78.82-211-1.26,1.89c17.06,23.94,34.45,47.65,50.92,72,3.64,5.39,5.56,13,5.54,19.57,0,10.85-2.42,21.67-3.57,32.53-2.56,24-5,48.08-7.47,72.64h71.51c-6.11-50.69-12.4-100.6-17.82-150.6a33.55,33.55,0,0,1,5-20.48c16.06-24.24,33.21-47.77,50-71.56l-1.53-1.4-61.63,43.65c-3.17-18-6.05-34.24-8.93-50.52l-1.78.16c-5.4,31.61-10.8,63.21-16.47,96.38Z"/></svg>