<svg id="Layer_3" data-name="Layer 3" xmlns="http://www.w3.org/2000/svg" viewBox="0 0 600 600"><defs><style>.cls-1{fill:#fff0c0;}</style></defs><path class="cls-1" d="M68.38,217.72v3.58A4.65,4.65,0,0,0,73,226l457.05-2.13c2.57,0,5.14-1.14,5.14-2.52v-2.54c0-2.57-3.71-3.06-6.28-3.06L73,213.07A4.65,4.65,0,0,0,68.38,217.72Z"/><path class="cls-1" d="M68.94,268.49l.53,3.54a4.65,4.65,0,0,0,5.29,3.91L526.4,205.81c2.54-.38,4.91-1.89,4.7-3.25l-.37-2.52c-.39-2.54-4.13-2.47-6.67-2.09L72.84,263.2A4.64,4.64,0,0,0,68.94,268.49Z"/></svg>